<?xml version="1.0" encoding="UTF-8"?>
<!DOCTYPE svg PUBLIC "-//W3C//DTD SVG 1.1//EN" "http://www.w3.org/Graphics/SVG/1.1/DTD/svg11.dtd">
<svg xmlns:xlink="http://www.w3.org/1999/xlink" xmlns="http://www.w3.org/2000/svg" width="37.051ex" height="6.91ex" viewBox="0 -1735.2 15952.4 2975.2" role="img" focusable="false" aria-hidden="true" style="vertical-align: -2.88ex;"><g stroke="currentColor" fill="currentColor" stroke-width="0" transform="matrix(1 0 0 -1 0 0)"><text font-family="STIXGeneral,'Arial Unicode MS',serif" stroke="none" transform="scale(41.267) matrix(1 0 0 -1 0 0)">Д</text><g transform="translate(549,0)"><text font-family="STIXGeneral,'Arial Unicode MS',serif" stroke="none" transform="scale(41.267) matrix(1 0 0 -1 0 0)">о</text></g><g transform="translate(971,0)"><text font-family="STIXGeneral,'Arial Unicode MS',serif" stroke="none" transform="scale(41.267) matrix(1 0 0 -1 0 0)">х</text></g><g transform="translate(1375,0)"><text font-family="STIXGeneral,'Arial Unicode MS',serif" stroke="none" transform="scale(41.267) matrix(1 0 0 -1 0 0)">о</text></g><g transform="translate(1798,0)"><text font-family="STIXGeneral,'Arial Unicode MS',serif" stroke="none" transform="scale(41.267) matrix(1 0 0 -1 0 0)">д</text></g><g transform="translate(2179,0)"><text font-family="STIXGeneral,'Arial Unicode MS',serif" stroke="none" transform="scale(41.267) matrix(1 0 0 -1 0 0)">и</text></g><g transform="translate(2612,0)"><text font-family="STIXGeneral,'Arial Unicode MS',serif" stroke="none" transform="scale(41.267) matrix(1 0 0 -1 0 0)">м</text></g><g transform="translate(3122,0)"><text font-family="STIXGeneral,'Arial Unicode MS',serif" stroke="none" transform="scale(41.267) matrix(1 0 0 -1 0 0)">о</text></g><g transform="translate(3544,0)"><text font-family="STIXGeneral,'Arial Unicode MS',serif" stroke="none" transform="scale(41.267) matrix(1 0 0 -1 0 0)">с</text></g><g transform="translate(3921,0)"><text font-family="STIXGeneral,'Arial Unicode MS',serif" stroke="none" transform="scale(41.267) matrix(1 0 0 -1 0 0)">т</text></g><g transform="translate(4279,0)"><text font-family="STIXGeneral,'Arial Unicode MS',serif" stroke="none" transform="scale(41.267) matrix(1 0 0 -1 0 0)">ь</text></g><g transform="translate(4934,0)"><path stroke-width="1" d="M56 347Q56 360 70 367H707Q722 359 722 347Q722 336 708 328L390 327H72Q56 332 56 347ZM56 153Q56 168 72 173H708Q722 163 722 153Q722 140 707 133H70Q56 140 56 153Z"/></g><g transform="translate(5713,0)"><g transform="translate(397,0)"><rect stroke="none" width="9721" height="60" x="0" y="220"/><g transform="translate(858,814)"><text font-family="STIXGeneral,'Arial Unicode MS',serif" stroke="none" transform="scale(41.267) matrix(1 0 0 -1 0 0)">З</text><g transform="translate(475,0)"><text font-family="STIXGeneral,'Arial Unicode MS',serif" stroke="none" transform="scale(41.267) matrix(1 0 0 -1 0 0)">а</text></g><g transform="translate(846,0)"><text font-family="STIXGeneral,'Arial Unicode MS',serif" stroke="none" transform="scale(41.267) matrix(1 0 0 -1 0 0)">в</text></g><g transform="translate(1238,0)"><text font-family="STIXGeneral,'Arial Unicode MS',serif" stroke="none" transform="scale(41.267) matrix(1 0 0 -1 0 0)">е</text></g><g transform="translate(1622,0)"><text font-family="STIXGeneral,'Arial Unicode MS',serif" stroke="none" transform="scale(41.267) matrix(1 0 0 -1 0 0)">р</text></g><g transform="translate(2036,0)"><text font-family="STIXGeneral,'Arial Unicode MS',serif" stroke="none" transform="scale(41.267) matrix(1 0 0 -1 0 0)">ш</text></g><g transform="translate(2670,0)"><text font-family="STIXGeneral,'Arial Unicode MS',serif" stroke="none" transform="scale(41.267) matrix(1 0 0 -1 0 0)">и</text></g><g transform="translate(3104,0)"><text font-family="STIXGeneral,'Arial Unicode MS',serif" stroke="none" transform="scale(41.267) matrix(1 0 0 -1 0 0)">л</text></g><g transform="translate(3516,0)"><text font-family="STIXGeneral,'Arial Unicode MS',serif" stroke="none" transform="scale(41.267) matrix(1 0 0 -1 0 0)">и</text></g><g transform="translate(4199,0)"><text font-family="STIXGeneral,'Arial Unicode MS',serif" stroke="none" transform="scale(41.267) matrix(1 0 0 -1 0 0)">п</text></g><g transform="translate(4632,0)"><text font-family="STIXGeneral,'Arial Unicode MS',serif" stroke="none" transform="scale(41.267) matrix(1 0 0 -1 0 0)">р</text></g><g transform="translate(5046,0)"><text font-family="STIXGeneral,'Arial Unicode MS',serif" stroke="none" transform="scale(41.267) matrix(1 0 0 -1 0 0)">о</text></g><g transform="translate(5469,0)"><text font-family="STIXGeneral,'Arial Unicode MS',serif" stroke="none" transform="scale(41.267) matrix(1 0 0 -1 0 0)">г</text></g><g transform="translate(5794,0)"><text font-family="STIXGeneral,'Arial Unicode MS',serif" stroke="none" transform="scale(41.267) matrix(1 0 0 -1 0 0)">р</text></g><g transform="translate(6208,0)"><text font-family="STIXGeneral,'Arial Unicode MS',serif" stroke="none" transform="scale(41.267) matrix(1 0 0 -1 0 0)">а</text></g><g transform="translate(6579,0)"><text font-family="STIXGeneral,'Arial Unicode MS',serif" stroke="none" transform="scale(41.267) matrix(1 0 0 -1 0 0)">м</text></g><g transform="translate(7088,0)"><text font-family="STIXGeneral,'Arial Unicode MS',serif" stroke="none" transform="scale(41.267) matrix(1 0 0 -1 0 0)">м</text></g><g transform="translate(7598,0)"><text font-family="STIXGeneral,'Arial Unicode MS',serif" stroke="none" transform="scale(41.267) matrix(1 0 0 -1 0 0)">у</text></g></g><g transform="translate(60,-810)"><text font-family="STIXGeneral,'Arial Unicode MS',serif" stroke="none" transform="scale(41.267) matrix(1 0 0 -1 0 0)">П</text><g transform="translate(597,0)"><text font-family="STIXGeneral,'Arial Unicode MS',serif" stroke="none" transform="scale(41.267) matrix(1 0 0 -1 0 0)">р</text></g><g transform="translate(1011,0)"><text font-family="STIXGeneral,'Arial Unicode MS',serif" stroke="none" transform="scale(41.267) matrix(1 0 0 -1 0 0)">и</text></g><g transform="translate(1444,0)"><text font-family="STIXGeneral,'Arial Unicode MS',serif" stroke="none" transform="scale(41.267) matrix(1 0 0 -1 0 0)">ш</text></g><g transform="translate(2078,0)"><text font-family="STIXGeneral,'Arial Unicode MS',serif" stroke="none" transform="scale(41.267) matrix(1 0 0 -1 0 0)">л</text></g><g transform="translate(2490,0)"><text font-family="STIXGeneral,'Arial Unicode MS',serif" stroke="none" transform="scale(41.267) matrix(1 0 0 -1 0 0)">и</text></g><g transform="translate(3174,0)"><text font-family="STIXGeneral,'Arial Unicode MS',serif" stroke="none" transform="scale(41.267) matrix(1 0 0 -1 0 0)">н</text></g><g transform="translate(3607,0)"><text font-family="STIXGeneral,'Arial Unicode MS',serif" stroke="none" transform="scale(41.267) matrix(1 0 0 -1 0 0)">а</text></g><g transform="translate(4228,0)"><text font-family="STIXGeneral,'Arial Unicode MS',serif" stroke="none" transform="scale(41.267) matrix(1 0 0 -1 0 0)">п</text></g><g transform="translate(4662,0)"><text font-family="STIXGeneral,'Arial Unicode MS',serif" stroke="none" transform="scale(41.267) matrix(1 0 0 -1 0 0)">е</text></g><g transform="translate(5046,0)"><text font-family="STIXGeneral,'Arial Unicode MS',serif" stroke="none" transform="scale(41.267) matrix(1 0 0 -1 0 0)">р</text></g><g transform="translate(5460,0)"><text font-family="STIXGeneral,'Arial Unicode MS',serif" stroke="none" transform="scale(41.267) matrix(1 0 0 -1 0 0)">в</text></g><g transform="translate(5851,0)"><text font-family="STIXGeneral,'Arial Unicode MS',serif" stroke="none" transform="scale(41.267) matrix(1 0 0 -1 0 0)">о</text></g><g transform="translate(6274,0)"><text font-family="STIXGeneral,'Arial Unicode MS',serif" stroke="none" transform="scale(41.267) matrix(1 0 0 -1 0 0)">е</text></g><g transform="translate(6909,0)"><text font-family="STIXGeneral,'Arial Unicode MS',serif" stroke="none" transform="scale(41.267) matrix(1 0 0 -1 0 0)">з</text></g><g transform="translate(7231,0)"><text font-family="STIXGeneral,'Arial Unicode MS',serif" stroke="none" transform="scale(41.267) matrix(1 0 0 -1 0 0)">а</text></g><g transform="translate(7602,0)"><text font-family="STIXGeneral,'Arial Unicode MS',serif" stroke="none" transform="scale(41.267) matrix(1 0 0 -1 0 0)">н</text></g><g transform="translate(8035,0)"><text font-family="STIXGeneral,'Arial Unicode MS',serif" stroke="none" transform="scale(41.267) matrix(1 0 0 -1 0 0)">я</text></g><g transform="translate(8424,0)"><text font-family="STIXGeneral,'Arial Unicode MS',serif" stroke="none" transform="scale(41.267) matrix(1 0 0 -1 0 0)">т</text></g><g transform="translate(8783,0)"><text font-family="STIXGeneral,'Arial Unicode MS',serif" stroke="none" transform="scale(41.267) matrix(1 0 0 -1 0 0)">и</text></g><g transform="translate(9216,0)"><text font-family="STIXGeneral,'Arial Unicode MS',serif" stroke="none" transform="scale(41.267) matrix(1 0 0 -1 0 0)">е</text></g></g></g></g></g></svg>
