<?xml version="1.0" encoding="UTF-8"?>
<!DOCTYPE svg PUBLIC "-//W3C//DTD SVG 1.1//EN" "http://www.w3.org/Graphics/SVG/1.1/DTD/svg11.dtd">
<svg xmlns:xlink="http://www.w3.org/1999/xlink" xmlns="http://www.w3.org/2000/svg" width="44.039ex" height="6.91ex" viewBox="0 -1735.2 18961.1 2975.2" role="img" focusable="false" aria-hidden="true" style="vertical-align: -2.88ex;"><g stroke="currentColor" fill="currentColor" stroke-width="0" transform="matrix(1 0 0 -1 0 0)"><text font-family="STIXGeneral,'Arial Unicode MS',serif" stroke="none" transform="scale(41.267) matrix(1 0 0 -1 0 0)">Э</text><g transform="translate(537,0)"><text font-family="STIXGeneral,'Arial Unicode MS',serif" stroke="none" transform="scale(41.267) matrix(1 0 0 -1 0 0)">ф</text></g><g transform="translate(1097,0)"><text font-family="STIXGeneral,'Arial Unicode MS',serif" stroke="none" transform="scale(41.267) matrix(1 0 0 -1 0 0)">ф</text></g><g transform="translate(1656,0)"><text font-family="STIXGeneral,'Arial Unicode MS',serif" stroke="none" transform="scale(41.267) matrix(1 0 0 -1 0 0)">е</text></g><g transform="translate(2041,0)"><text font-family="STIXGeneral,'Arial Unicode MS',serif" stroke="none" transform="scale(41.267) matrix(1 0 0 -1 0 0)">к</text></g><g transform="translate(2456,0)"><text font-family="STIXGeneral,'Arial Unicode MS',serif" stroke="none" transform="scale(41.267) matrix(1 0 0 -1 0 0)">т</text></g><g transform="translate(2815,0)"><text font-family="STIXGeneral,'Arial Unicode MS',serif" stroke="none" transform="scale(41.267) matrix(1 0 0 -1 0 0)">и</text></g><g transform="translate(3248,0)"><text font-family="STIXGeneral,'Arial Unicode MS',serif" stroke="none" transform="scale(41.267) matrix(1 0 0 -1 0 0)">в</text></g><g transform="translate(3639,0)"><text font-family="STIXGeneral,'Arial Unicode MS',serif" stroke="none" transform="scale(41.267) matrix(1 0 0 -1 0 0)">н</text></g><g transform="translate(4073,0)"><text font-family="STIXGeneral,'Arial Unicode MS',serif" stroke="none" transform="scale(41.267) matrix(1 0 0 -1 0 0)">о</text></g><g transform="translate(4495,0)"><text font-family="STIXGeneral,'Arial Unicode MS',serif" stroke="none" transform="scale(41.267) matrix(1 0 0 -1 0 0)">с</text></g><g transform="translate(4872,0)"><text font-family="STIXGeneral,'Arial Unicode MS',serif" stroke="none" transform="scale(41.267) matrix(1 0 0 -1 0 0)">т</text></g><g transform="translate(5230,0)"><text font-family="STIXGeneral,'Arial Unicode MS',serif" stroke="none" transform="scale(41.267) matrix(1 0 0 -1 0 0)">ь</text></g><g transform="translate(5885,0)"><path stroke-width="1" d="M56 347Q56 360 70 367H707Q722 359 722 347Q722 336 708 328L390 327H72Q56 332 56 347ZM56 153Q56 168 72 173H708Q722 163 722 153Q722 140 707 133H70Q56 140 56 153Z"/></g><g transform="translate(6664,0)"><g transform="translate(397,0)"><rect stroke="none" width="11778" height="60" x="0" y="220"/><g transform="translate(60,814)"><text font-family="STIXGeneral,'Arial Unicode MS',serif" stroke="none" transform="scale(41.267) matrix(1 0 0 -1 0 0)">П</text><g transform="translate(597,0)"><text font-family="STIXGeneral,'Arial Unicode MS',serif" stroke="none" transform="scale(41.267) matrix(1 0 0 -1 0 0)">о</text></g><g transform="translate(1020,0)"><text font-family="STIXGeneral,'Arial Unicode MS',serif" stroke="none" transform="scale(41.267) matrix(1 0 0 -1 0 0)">с</text></g><g transform="translate(1396,0)"><text font-family="STIXGeneral,'Arial Unicode MS',serif" stroke="none" transform="scale(41.267) matrix(1 0 0 -1 0 0)">т</text></g><g transform="translate(1755,0)"><text font-family="STIXGeneral,'Arial Unicode MS',serif" stroke="none" transform="scale(41.267) matrix(1 0 0 -1 0 0)">у</text></g><g transform="translate(2160,0)"><text font-family="STIXGeneral,'Arial Unicode MS',serif" stroke="none" transform="scale(41.267) matrix(1 0 0 -1 0 0)">п</text></g><g transform="translate(2594,0)"><text font-family="STIXGeneral,'Arial Unicode MS',serif" stroke="none" transform="scale(41.267) matrix(1 0 0 -1 0 0)">и</text></g><g transform="translate(3027,0)"><text font-family="STIXGeneral,'Arial Unicode MS',serif" stroke="none" transform="scale(41.267) matrix(1 0 0 -1 0 0)">л</text></g><g transform="translate(3439,0)"><text font-family="STIXGeneral,'Arial Unicode MS',serif" stroke="none" transform="scale(41.267) matrix(1 0 0 -1 0 0)">и</text></g><g transform="translate(4122,0)"><text font-family="STIXGeneral,'Arial Unicode MS',serif" stroke="none" transform="scale(41.267) matrix(1 0 0 -1 0 0)">и</text></g><g transform="translate(4555,0)"><text font-family="STIXGeneral,'Arial Unicode MS',serif" stroke="none" transform="scale(41.267) matrix(1 0 0 -1 0 0)">л</text></g><g transform="translate(4967,0)"><text font-family="STIXGeneral,'Arial Unicode MS',serif" stroke="none" transform="scale(41.267) matrix(1 0 0 -1 0 0)">и</text></g><g transform="translate(5651,0)"><text font-family="STIXGeneral,'Arial Unicode MS',serif" stroke="none" transform="scale(41.267) matrix(1 0 0 -1 0 0)">у</text></g><g transform="translate(6056,0)"><text font-family="STIXGeneral,'Arial Unicode MS',serif" stroke="none" transform="scale(41.267) matrix(1 0 0 -1 0 0)">с</text></g><g transform="translate(6433,0)"><text font-family="STIXGeneral,'Arial Unicode MS',serif" stroke="none" transform="scale(41.267) matrix(1 0 0 -1 0 0)">т</text></g><g transform="translate(6791,0)"><text font-family="STIXGeneral,'Arial Unicode MS',serif" stroke="none" transform="scale(41.267) matrix(1 0 0 -1 0 0)">р</text></g><g transform="translate(7205,0)"><text font-family="STIXGeneral,'Arial Unicode MS',serif" stroke="none" transform="scale(41.267) matrix(1 0 0 -1 0 0)">о</text></g><g transform="translate(7627,0)"><text font-family="STIXGeneral,'Arial Unicode MS',serif" stroke="none" transform="scale(41.267) matrix(1 0 0 -1 0 0)">и</text></g><g transform="translate(8061,0)"><text font-family="STIXGeneral,'Arial Unicode MS',serif" stroke="none" transform="scale(41.267) matrix(1 0 0 -1 0 0)">л</text></g><g transform="translate(8473,0)"><text font-family="STIXGeneral,'Arial Unicode MS',serif" stroke="none" transform="scale(41.267) matrix(1 0 0 -1 0 0)">и</text></g><g transform="translate(8906,0)"><text font-family="STIXGeneral,'Arial Unicode MS',serif" stroke="none" transform="scale(41.267) matrix(1 0 0 -1 0 0)">с</text></g><g transform="translate(9283,0)"><text font-family="STIXGeneral,'Arial Unicode MS',serif" stroke="none" transform="scale(41.267) matrix(1 0 0 -1 0 0)">ь</text></g><g transform="translate(9910,0)"><text font-family="STIXGeneral,'Arial Unicode MS',serif" stroke="none" transform="scale(41.267) matrix(1 0 0 -1 0 0)">в</text></g><g transform="translate(10551,0)"><text font-family="STIXGeneral,'Arial Unicode MS',serif" stroke="none" transform="scale(41.267) matrix(1 0 0 -1 0 0)">И</text></g><g transform="translate(11148,0)"><text font-family="STIXGeneral,'Arial Unicode MS',serif" stroke="none" transform="scale(41.267) matrix(1 0 0 -1 0 0)">Т</text></g></g><g transform="translate(971,-810)"><text font-family="STIXGeneral,'Arial Unicode MS',serif" stroke="none" transform="scale(41.267) matrix(1 0 0 -1 0 0)">В</text><g transform="translate(537,0)"><text font-family="STIXGeneral,'Arial Unicode MS',serif" stroke="none" transform="scale(41.267) matrix(1 0 0 -1 0 0)">ы</text></g><g transform="translate(1090,0)"><text font-family="STIXGeneral,'Arial Unicode MS',serif" stroke="none" transform="scale(41.267) matrix(1 0 0 -1 0 0)">п</text></g><g transform="translate(1523,0)"><text font-family="STIXGeneral,'Arial Unicode MS',serif" stroke="none" transform="scale(41.267) matrix(1 0 0 -1 0 0)">у</text></g><g transform="translate(1929,0)"><text font-family="STIXGeneral,'Arial Unicode MS',serif" stroke="none" transform="scale(41.267) matrix(1 0 0 -1 0 0)">с</text></g><g transform="translate(2305,0)"><text font-family="STIXGeneral,'Arial Unicode MS',serif" stroke="none" transform="scale(41.267) matrix(1 0 0 -1 0 0)">т</text></g><g transform="translate(2664,0)"><text font-family="STIXGeneral,'Arial Unicode MS',serif" stroke="none" transform="scale(41.267) matrix(1 0 0 -1 0 0)">и</text></g><g transform="translate(3097,0)"><text font-family="STIXGeneral,'Arial Unicode MS',serif" stroke="none" transform="scale(41.267) matrix(1 0 0 -1 0 0)">л</text></g><g transform="translate(3509,0)"><text font-family="STIXGeneral,'Arial Unicode MS',serif" stroke="none" transform="scale(41.267) matrix(1 0 0 -1 0 0)">и</text></g><g transform="translate(3942,0)"><text font-family="STIXGeneral,'Arial Unicode MS',serif" stroke="none" transform="scale(41.267) matrix(1 0 0 -1 0 0)">с</text></g><g transform="translate(4319,0)"><text font-family="STIXGeneral,'Arial Unicode MS',serif" stroke="none" transform="scale(41.267) matrix(1 0 0 -1 0 0)">ь</text></g><g transform="translate(4946,0)"><text font-family="STIXGeneral,'Arial Unicode MS',serif" stroke="none" transform="scale(41.267) matrix(1 0 0 -1 0 0)">п</text></g><g transform="translate(5380,0)"><text font-family="STIXGeneral,'Arial Unicode MS',serif" stroke="none" transform="scale(41.267) matrix(1 0 0 -1 0 0)">о</text></g><g transform="translate(6052,0)"><text font-family="STIXGeneral,'Arial Unicode MS',serif" stroke="none" transform="scale(41.267) matrix(1 0 0 -1 0 0)">п</text></g><g transform="translate(6485,0)"><text font-family="STIXGeneral,'Arial Unicode MS',serif" stroke="none" transform="scale(41.267) matrix(1 0 0 -1 0 0)">р</text></g><g transform="translate(6899,0)"><text font-family="STIXGeneral,'Arial Unicode MS',serif" stroke="none" transform="scale(41.267) matrix(1 0 0 -1 0 0)">о</text></g><g transform="translate(7322,0)"><text font-family="STIXGeneral,'Arial Unicode MS',serif" stroke="none" transform="scale(41.267) matrix(1 0 0 -1 0 0)">г</text></g><g transform="translate(7647,0)"><text font-family="STIXGeneral,'Arial Unicode MS',serif" stroke="none" transform="scale(41.267) matrix(1 0 0 -1 0 0)">р</text></g><g transform="translate(8061,0)"><text font-family="STIXGeneral,'Arial Unicode MS',serif" stroke="none" transform="scale(41.267) matrix(1 0 0 -1 0 0)">а</text></g><g transform="translate(8432,0)"><text font-family="STIXGeneral,'Arial Unicode MS',serif" stroke="none" transform="scale(41.267) matrix(1 0 0 -1 0 0)">м</text></g><g transform="translate(8942,0)"><text font-family="STIXGeneral,'Arial Unicode MS',serif" stroke="none" transform="scale(41.267) matrix(1 0 0 -1 0 0)">м</text></g><g transform="translate(9451,0)"><text font-family="STIXGeneral,'Arial Unicode MS',serif" stroke="none" transform="scale(41.267) matrix(1 0 0 -1 0 0)">е</text></g></g></g></g></g></svg>
